<svg width="60" height="39" viewBox="0 0 60 39" fill="none" xmlns="http://www.w3.org/2000/svg">
<path d="M57.4909 7.31307L50.4685 10.6108C49.8326 10.7917 49.14 10.4987 48.8422 9.88329C48.5083 9.19311 48.797 8.3631 49.486 8.02977L49.4848 8.02553L59.213 3.263C59.9056 2.92726 60.1961 2.09362 59.8603 1.40103C59.5246 0.708445 58.6916 0.418507 57.999 0.75365L38.5263 10.3191C38.4419 10.3601 38.3557 10.3872 38.2689 10.4131L38.0736 10.509L38.0471 10.4601C37.3328 10.5705 36.6011 10.219 36.2695 9.5343C35.9645 8.90379 36.0863 8.17804 36.5215 7.68316L41.0833 5.32872C41.6167 4.93932 41.8139 4.21419 41.5161 3.59875C41.1803 2.90616 40.3473 2.61623 39.6541 2.95137L5.65213 19.3626C0.676215 21.77 -1.40637 27.7568 1.00172 32.7327C3.40981 37.7092 9.39596 39.7912 14.3725 37.3837L49.0435 20.6061C49.7361 20.2709 50.0261 19.4379 49.6909 18.7447C49.3859 18.1154 48.6716 17.8243 48.0237 18.0262L46.1665 18.9249C45.5016 19.2462 44.7005 18.9683 44.3793 18.3035C44.0574 17.638 44.3359 16.8375 45.0007 16.5163L48.0653 15.0328L58.7048 9.82362C59.3974 9.48787 59.6874 8.65484 59.3522 7.96165C59.0171 7.26785 58.1834 6.97853 57.4909 7.31307Z" fill="#D2FC2A"/>
<path d="M41.6018 14.8294L36.2738 17.3309C35.791 17.4683 35.2654 17.2453 35.0393 16.7787C34.7862 16.2555 35.005 15.6256 35.5282 15.3725L35.5276 15.3694L42.908 11.7558C43.4336 11.5014 43.6536 10.8685 43.3992 10.3429C43.1449 9.81728 42.512 9.59787 41.9863 9.85164L27.2123 17.109C27.149 17.1398 27.0833 17.1609 27.0176 17.1802L26.8693 17.2525L26.8494 17.2157C26.3075 17.2995 25.7524 17.0319 25.501 16.5129C25.2695 16.0349 25.3624 15.484 25.6915 15.1084L29.1526 13.3218C29.5571 13.0265 29.7072 12.4767 29.4811 12.0096C29.2268 11.4833 28.5939 11.2639 28.0682 11.5183L7.35264 21.308C3.57685 23.135 1.99697 27.6763 3.82399 31.4521C5.6504 35.2285 10.1923 36.8078 13.9681 34.9814L35.1912 24.9126C35.7169 24.6582 35.9369 24.0259 35.6825 23.5003C35.4517 23.0229 34.9091 22.8017 34.4179 22.9554L33.0086 23.6371C32.5035 23.8812 31.8965 23.6703 31.6524 23.1657C31.4082 22.6612 31.6192 22.0536 32.1237 21.8101L34.4486 20.6847L42.5216 16.7323C43.0472 16.4779 43.2672 15.8456 43.0123 15.3194C42.7597 14.795 42.1274 14.575 41.6018 14.8294Z" fill="#7B9611"/>
</svg>
